<svg id="flat" height="512" viewBox="0 0 512 512" width="512" xmlns="http://www.w3.org/2000/svg"><path d="m24 416h216v-112h24v-96a32 32 0 0 0 -32-32h-140.11782a67.88218 67.88218 0 0 0 -67.88218 67.88218z" fill="#548aff"/><path d="m468.91547 304a19.08452 19.08452 0 0 0 19.08453-19.08453 19.08456 19.08456 0 0 0 -2.37454-9.21931l-117.89623-213.68693a27.10121 27.10121 0 0 0 -23.72923-14.00923 27.10121 27.10121 0 0 0 -23.72921 14.00923l-117.89625 213.68691a19.08456 19.08456 0 0 0 -2.37454 9.21931 19.08452 19.08452 0 0 0 19.08453 19.08455z" fill="#ef5e3b"/><circle cx="344" cy="248" fill="#ff9178" r="16"/><path d="m336 208h16l16-80h-48z" fill="#ff9178"/><path d="m432 304v16a40 40 0 0 1 -40 40h-56v-56z" fill="#ffbfa1"/><rect fill="#4976f2" height="45.255" rx="8" transform="matrix(.707 -.707 .707 .707 -198.558 128.638)" width="16" x="48" y="281.373"/><rect fill="#4976f2" height="56.569" rx="8" transform="matrix(.707 -.707 .707 .707 -140.902 147.833)" width="16" x="100" y="215.716"/><path d="m72 320 56-56 40 40h104l20.68629-20.68629a11.31372 11.31372 0 0 1 8-3.31371 11.31369 11.31369 0 0 1 11.31371 11.3137v12.6863h48v32a40 40 0 0 1 -40 40h-165.49033a64 64 0 0 1 -45.25484-18.74517z" fill="#ffceb6"/><path d="m24 416h216v80h-216z" fill="#718799"/><path d="m200 128v64a40 40 0 0 1 -80 0v-64z" fill="#ffceb6"/><path d="m200 128v64a39.7117 39.7117 0 0 1 -3.34009 16h-20.65991a40.00174 40.00174 0 0 1 -40-40v-40z" fill="#ffbfa1"/><path d="m216 64v72a48 48 0 0 1 -48 48 48 48 0 0 1 -48-48v-32l40-40z" fill="#ffceb6"/><circle cx="160" cy="104" fill="#c47220" r="8"/><path d="m192 152h-20.68652a35.08124 35.08124 0 0 1 -24.97071-10.34326l11.31446-11.31348a19.18424 19.18424 0 0 0 13.65625 5.65674h20.68652z" fill="#ffb089"/><g fill="#c47220"><circle cx="192" cy="104" r="8"/><path d="m216 64 5.06751-2.53375a19.77708 19.77708 0 0 0 10.93249-17.68915 19.77706 19.77706 0 0 0 -19.77707-19.7771h-52.22293a40 40 0 0 0 -40 40v40l40-40z"/></g></svg>